REM DIRINDEX 1\2\4,1\2\5,1\2\6,1\3\7,1\3\8
REM DIRNAME cjc128,folder01,folder02,folder03,folder04,folder05,folder06,folder07
TITLE ""
FILE "043_Proficiency Test08.mp3" MP3
  TRACK 01 AUDIO
    TITLE "0:"
    INDEX 01 00:00:00
  TRACK 02 AUDIO
    TITLE "6:cjc128_2356"
    INDEX 01 00:00:25
  TRACK 03 AUDIO
    TITLE "0:"
    INDEX 01 00:02:45
  TRACK 04 AUDIO
    TITLE "6:cjc128_2357"
    INDEX 01 00:03:10
  TRACK 05 AUDIO
    TITLE "0:"
    INDEX 01 00:05:24
  TRACK 06 AUDIO
    TITLE "4:cjc128_2358"
    INDEX 01 00:06:00
  TRACK 07 AUDIO
    TITLE "0:"
    INDEX 01 00:09:10
  TRACK 08 AUDIO
    TITLE "5:cjc128_2359"
    INDEX 01 00:12:50
  TRACK 09 AUDIO
    TITLE "0:"
    INDEX 01 00:15:42
  TRACK 10 AUDIO
    TITLE "6:cjc128_2360"
    INDEX 01 00:16:36
  TRACK 11 AUDIO
    TITLE "0:"
    INDEX 01 00:18:54
  TRACK 12 AUDIO
    TITLE "4:cjc128_2361"
    INDEX 01 00:19:20
  TRACK 13 AUDIO
    TITLE "0:"
    INDEX 01 00:22:19
  TRACK 14 AUDIO
    TITLE "5:cjc128_2362"
    INDEX 01 00:24:61
  TRACK 15 AUDIO
    TITLE "0:"
    INDEX 01 00:26:60
  TRACK 16 AUDIO
    TITLE "6:cjc128_2363"
    INDEX 01 00:27:51
  TRACK 17 AUDIO
    TITLE "0:"
    INDEX 01 00:29:64
  TRACK 18 AUDIO
    TITLE "4:cjc128_2364"
    INDEX 01 00:30:46
  TRACK 19 AUDIO
    TITLE "0:"
    INDEX 01 00:34:36
  TRACK 20 AUDIO
    TITLE "5:cjc128_2365"
    INDEX 01 00:38:08
  TRACK 21 AUDIO
    TITLE "0:"
    INDEX 01 00:41:06
  TRACK 22 AUDIO
    TITLE "6:cjc128_2366"
    INDEX 01 00:41:61
  TRACK 23 AUDIO
    TITLE "0:"
    INDEX 01 00:44:05
  TRACK 24 AUDIO
    TITLE "4:cjc128_2367"
    INDEX 01 00:45:02
  TRACK 25 AUDIO
    TITLE "0:"
    INDEX 01 00:48:08
  TRACK 26 AUDIO
    TITLE "5:cjc128_2368"
    INDEX 01 00:51:28
  TRACK 27 AUDIO
    TITLE "0:"
    INDEX 01 00:53:70
  TRACK 28 AUDIO
    TITLE "6:cjc128_2369"
    INDEX 01 00:54:52
  TRACK 29 AUDIO
    TITLE "0:"
    INDEX 01 00:56:74
  TRACK 30 AUDIO
    TITLE "4:cjc128_2370"
    INDEX 01 00:57:64
  TRACK 31 AUDIO
    TITLE "0:"
    INDEX 01 01:01:62
  TRACK 32 AUDIO
    TITLE "5:cjc128_2371"
    INDEX 01 01:05:50
  TRACK 33 AUDIO
    TITLE "0:"
    INDEX 01 01:08:74
